<svg xmlns="http://www.w3.org/2000/svg" width="1020" height="192" font-family="Helvetica,Arial,sans-serif" font-size="13">
<rect width="1020" height="192" fill="#ffffff"/>
<text x="70" y="24" font-size="16" font-weight="bold">rm_fails_edf_ok &#183; RM: MISSES DEADLINES</text>
<line x1="70" y1="40" x2="70" y2="132" stroke="#888888" stroke-width="1"/>
<text x="70" y="34" text-anchor="middle" fill="#555">0</text>
<line x1="96" y1="40" x2="96" y2="132" stroke="#cccccc" stroke-width="1"/>
<line x1="122" y1="40" x2="122" y2="132" stroke="#cccccc" stroke-width="1"/>
<line x1="148" y1="40" x2="148" y2="132" stroke="#cccccc" stroke-width="1"/>
<line x1="174" y1="40" x2="174" y2="132" stroke="#cccccc" stroke-width="1"/>
<line x1="200" y1="40" x2="200" y2="132" stroke="#888888" stroke-width="1"/>
<text x="200" y="34" text-anchor="middle" fill="#555">5</text>
<line x1="226" y1="40" x2="226" y2="132" stroke="#cccccc" stroke-width="1"/>
<line x1="252" y1="40" x2="252" y2="132" stroke="#cccccc" stroke-width="1"/>
<line x1="278" y1="40" x2="278" y2="132" stroke="#cccccc" stroke-width="1"/>
<line x1="304" y1="40" x2="304" y2="132" stroke="#cccccc" stroke-width="1"/>
<line x1="330" y1="40" x2="330" y2="132" stroke="#888888" stroke-width="1"/>
<text x="330" y="34" text-anchor="middle" fill="#555">10</text>
<line x1="356" y1="40" x2="356" y2="132" stroke="#cccccc" stroke-width="1"/>
<line x1="382" y1="40" x2="382" y2="132" stroke="#cccccc" stroke-width="1"/>
<line x1="408" y1="40" x2="408" y2="132" stroke="#cccccc" stroke-width="1"/>
<line x1="434" y1="40" x2="434" y2="132" stroke="#cccccc" stroke-width="1"/>
<line x1="460" y1="40" x2="460" y2="132" stroke="#888888" stroke-width="1"/>
<text x="460" y="34" text-anchor="middle" fill="#555">15</text>
<line x1="486" y1="40" x2="486" y2="132" stroke="#cccccc" stroke-width="1"/>
<line x1="512" y1="40" x2="512" y2="132" stroke="#cccccc" stroke-width="1"/>
<line x1="538" y1="40" x2="538" y2="132" stroke="#cccccc" stroke-width="1"/>
<line x1="564" y1="40" x2="564" y2="132" stroke="#cccccc" stroke-width="1"/>
<line x1="590" y1="40" x2="590" y2="132" stroke="#888888" stroke-width="1"/>
<text x="590" y="34" text-anchor="middle" fill="#555">20</text>
<line x1="616" y1="40" x2="616" y2="132" stroke="#cccccc" stroke-width="1"/>
<line x1="642" y1="40" x2="642" y2="132" stroke="#cccccc" stroke-width="1"/>
<line x1="668" y1="40" x2="668" y2="132" stroke="#cccccc" stroke-width="1"/>
<line x1="694" y1="40" x2="694" y2="132" stroke="#cccccc" stroke-width="1"/>
<line x1="720" y1="40" x2="720" y2="132" stroke="#888888" stroke-width="1"/>
<text x="720" y="34" text-anchor="middle" fill="#555">25</text>
<line x1="746" y1="40" x2="746" y2="132" stroke="#cccccc" stroke-width="1"/>
<line x1="772" y1="40" x2="772" y2="132" stroke="#cccccc" stroke-width="1"/>
<line x1="798" y1="40" x2="798" y2="132" stroke="#cccccc" stroke-width="1"/>
<line x1="824" y1="40" x2="824" y2="132" stroke="#cccccc" stroke-width="1"/>
<line x1="850" y1="40" x2="850" y2="132" stroke="#888888" stroke-width="1"/>
<text x="850" y="34" text-anchor="middle" fill="#555">30</text>
<line x1="876" y1="40" x2="876" y2="132" stroke="#cccccc" stroke-width="1"/>
<line x1="902" y1="40" x2="902" y2="132" stroke="#cccccc" stroke-width="1"/>
<line x1="928" y1="40" x2="928" y2="132" stroke="#cccccc" stroke-width="1"/>
<line x1="954" y1="40" x2="954" y2="132" stroke="#cccccc" stroke-width="1"/>
<line x1="980" y1="40" x2="980" y2="132" stroke="#888888" stroke-width="1"/>
<text x="980" y="34" text-anchor="middle" fill="#555">35</text>
<text x="60" y="67.0" text-anchor="end" font-weight="bold">T1</text>
<rect x="70" y="46" width="910" height="34" fill="#f6f6f6" stroke="#eeeeee"/>
<rect x="70" y="46" width="52" height="34" rx="3" fill="#4e79a7" stroke="#333" stroke-width="0.6"/>
<rect x="200" y="46" width="52" height="34" rx="3" fill="#4e79a7" stroke="#333" stroke-width="0.6"/>
<rect x="330" y="46" width="52" height="34" rx="3" fill="#4e79a7" stroke="#333" stroke-width="0.6"/>
<rect x="460" y="46" width="52" height="34" rx="3" fill="#4e79a7" stroke="#333" stroke-width="0.6"/>
<rect x="590" y="46" width="26" height="34" rx="3" fill="#4e79a7" stroke="#333" stroke-width="0.6"/>
<rect x="616" y="46" width="26" height="34" rx="3" fill="#4e79a7" stroke="#333" stroke-width="0.6"/>
<rect x="720" y="46" width="52" height="34" rx="3" fill="#4e79a7" stroke="#333" stroke-width="0.6"/>
<rect x="850" y="46" width="52" height="34" rx="3" fill="#4e79a7" stroke="#333" stroke-width="0.6"/>
<path d="M70,82 l-4,9 l8,0 z" fill="#2ca02c"/>
<path d="M200,82 l-4,9 l8,0 z" fill="#2ca02c"/>
<path d="M330,82 l-4,9 l8,0 z" fill="#2ca02c"/>
<path d="M460,82 l-4,9 l8,0 z" fill="#2ca02c"/>
<path d="M590,82 l-4,9 l8,0 z" fill="#2ca02c"/>
<path d="M720,82 l-4,9 l8,0 z" fill="#2ca02c"/>
<path d="M850,82 l-4,9 l8,0 z" fill="#2ca02c"/>
<path d="M980,82 l-4,9 l8,0 z" fill="#2ca02c"/>
<path d="M200,53 l-4,-9 l8,0 z" fill="#666666"/>
<path d="M330,53 l-4,-9 l8,0 z" fill="#666666"/>
<path d="M460,53 l-4,-9 l8,0 z" fill="#666666"/>
<path d="M590,53 l-4,-9 l8,0 z" fill="#666666"/>
<path d="M720,53 l-4,-9 l8,0 z" fill="#666666"/>
<path d="M850,53 l-4,-9 l8,0 z" fill="#666666"/>
<path d="M980,53 l-4,-9 l8,0 z" fill="#666666"/>
<text x="60" y="113.0" text-anchor="end" font-weight="bold">T2</text>
<rect x="70" y="92" width="910" height="34" fill="#f6f6f6" stroke="#eeeeee"/>
<rect x="122" y="92" width="78" height="34" rx="3" fill="#f28e2b" stroke="#333" stroke-width="0.6"/>
<rect x="252" y="92" width="26" height="34" rx="3" fill="#d62728" stroke="#333" stroke-width="0.6"/>
<rect x="278" y="92" width="52" height="34" rx="3" fill="#f28e2b" stroke="#333" stroke-width="0.6"/>
<rect x="382" y="92" width="52" height="34" rx="3" fill="#f28e2b" stroke="#333" stroke-width="0.6"/>
<rect x="434" y="92" width="26" height="34" rx="3" fill="#f28e2b" stroke="#333" stroke-width="0.6"/>
<rect x="512" y="92" width="78" height="34" rx="3" fill="#f28e2b" stroke="#333" stroke-width="0.6"/>
<rect x="642" y="92" width="78" height="34" rx="3" fill="#f28e2b" stroke="#333" stroke-width="0.6"/>
<rect x="772" y="92" width="26" height="34" rx="3" fill="#f28e2b" stroke="#333" stroke-width="0.6"/>
<rect x="798" y="92" width="52" height="34" rx="3" fill="#f28e2b" stroke="#333" stroke-width="0.6"/>
<rect x="902" y="92" width="52" height="34" rx="3" fill="#f28e2b" stroke="#333" stroke-width="0.6"/>
<path d="M70,128 l-4,9 l8,0 z" fill="#2ca02c"/>
<path d="M252,128 l-4,9 l8,0 z" fill="#2ca02c"/>
<path d="M434,128 l-4,9 l8,0 z" fill="#2ca02c"/>
<path d="M616,128 l-4,9 l8,0 z" fill="#2ca02c"/>
<path d="M798,128 l-4,9 l8,0 z" fill="#2ca02c"/>
<path d="M980,128 l-4,9 l8,0 z" fill="#2ca02c"/>
<path d="M252,99 l-4,-9 l8,0 z" fill="#d62728"/>
<text x="258" y="96" fill="#d62728" font-weight="bold">miss</text>
<path d="M434,99 l-4,-9 l8,0 z" fill="#666666"/>
<path d="M616,99 l-4,-9 l8,0 z" fill="#666666"/>
<path d="M798,99 l-4,-9 l8,0 z" fill="#666666"/>
<path d="M980,99 l-4,-9 l8,0 z" fill="#666666"/>
</svg>